<?xml version="1.0" encoding="UTF-8"?><svg id="_イヤー_1" xmlns="http://www.w3.org/2000/svg" xmlns:xlink="http://www.w3.org/1999/xlink" viewBox="0 0 121.62 121.43"><defs><linearGradient id="_称未設定グラデーション_11" x1="41.13" y1="80.39" x2="80.49" y2="41.03" gradientTransform="matrix(1, 0, 0, 1, 0, 0)" gradientUnits="userSpaceOnUse"><stop offset=".03" stop-color="#66cdaa"/><stop offset="1" stop-color="#66cacd"/></linearGradient><linearGradient id="_称未設定グラデーション_11-2" x1="44.87" y1="62.42" x2="48.71" y2="58.58" xlink:href="#_称未設定グラデーション_11"/></defs><g><path d="M62.22,12.25l1.1-12.25,6.56,.59-.18,1.98-4.21-.38-.29,3.23,3.92,.35-.17,1.93-3.92-.35-.46,5.11-2.36-.21Z" style="fill:#66cacd;"/><path d="M78.31,15.38l-6.49-1.92,3.48-11.8,2.27,.67-2.92,9.89,4.22,1.25-.57,1.92Z" style="fill:#66cacd;"/><path d="M86.81,19.64l-6.09-3.21,5.74-10.89,5.86,3.09-.93,1.76-3.77-1.98-1.39,2.63,3.55,1.87-.9,1.71-3.55-1.87-1.6,3.03,3.99,2.1-.93,1.76Z" style="fill:#66cacd;"/><path d="M95.59,26.6l-2.04-1.71,.68-2.54c.23-.92,.43-1.6,.67-2.36l-.04-.03c-.67,.4-1.32,.73-2.15,1.14l-2.29,1.17-1.99-1.66,6.46-2.75,1.53-6.61,2.02,1.69-.7,2.56c-.21,.75-.42,1.38-.64,2.09l.02,.02c.71-.4,1.23-.7,1.92-1.04l2.34-1.17,2,1.67-6.29,2.6-1.5,6.92Z" style="fill:#66cacd;"/><path d="M105.91,28.99c.55,1.31,.31,2.78-.94,3.73-.76,.58-1.74,.83-2.69,.64-1.1-.21-2.26-1.06-3.58-2.8-.71-.93-1.18-1.68-1.46-2.18l9.62-7.34c.54,.47,1.37,1.37,2.1,2.33,.9,1.18,1.39,2.14,1.43,3.17,.05,.89-.32,1.75-1.12,2.36-.89,.68-2.12,.79-3.31,.05l-.05,.04Zm-5.91,.24c.11,.22,.27,.46,.52,.79,.78,1.02,1.89,1.53,3,.69,1.13-.86,.8-2.14,.06-3.11l-.53-.7-3.05,2.33Zm4.95-2.69c.82,1.07,1.87,1.27,2.67,.66,.97-.74,.73-1.71,.09-2.55-.31-.41-.53-.64-.69-.78l-2.6,1.98,.52,.69Z" style="fill:#66cacd;"/><path d="M113.25,43.7c-3.93,1.71-6.81,.59-8.02-2.21-1.29-2.98,.46-5.75,3.73-7.17,3.37-1.47,6.66-.68,7.94,2.27,1.36,3.12-.65,5.81-3.65,7.12Zm-3.26-7.13c-2.21,.96-3.66,2.62-2.96,4.22,.7,1.61,2.87,1.66,5.14,.68,2.07-.9,3.65-2.51,2.93-4.17-.74-1.7-3.04-1.62-5.11-.72Z" style="fill:#66cacd;"/><path d="M109.51,57.19l-.45-2.62,2.16-1.49c.77-.55,1.36-.95,2.04-1.37v-.05c-.78-.13-1.49-.3-2.39-.52l-2.51-.59-.44-2.56,6.71,2.08,5.45-4.05,.45,2.6-2.2,1.5c-.64,.43-1.21,.78-1.84,1.18v.03c.81,.15,1.4,.26,2.14,.45l2.54,.62,.44,2.57-6.48-2.09-5.63,4.31Z" style="fill:#66cacd;"/><path d="M108.48,71.14l.9-6.71,12.19,1.64-.32,2.35-10.21-1.38-.59,4.36-1.98-.27Z" style="fill:#66cacd;"/><path d="M104.78,82.14l.85-2.33,3.35,.29,1.13-3.09-2.76-1.91,.83-2.25,10.35,7.51-1.02,2.79-12.73-1.01Zm6-1.73l2.88,.27c.79,.08,1.79,.23,2.55,.34l.02-.04c-.67-.41-1.54-.96-2.15-1.37l-2.39-1.66-.9,2.46Z" style="fill:#66cacd;"/><path d="M109.19,98.12l-4.03-7.01-4.26-2.79,1.3-1.98,4.19,2.75,8.02,1.08-1.45,2.21-3.2-.64c-.93-.19-1.73-.37-2.6-.59l-.02,.03c.55,.65,1.05,1.34,1.61,2.13l1.87,2.64-1.43,2.18Z" style="fill:#66cacd;"/><path d="M94.71,104.28c-2.94-3.12-2.85-6.21-.62-8.3,2.37-2.22,5.57-1.5,8.01,1.1,2.52,2.68,2.89,6.04,.55,8.25-2.48,2.33-5.69,1.35-7.94-1.04Zm5.61-5.47c-1.65-1.76-3.7-2.56-4.97-1.37-1.28,1.21-.6,3.26,1.1,5.07,1.54,1.64,3.6,2.59,4.92,1.35,1.35-1.27,.5-3.41-1.04-5.06Z" style="fill:#66cacd;"/><path d="M82.85,109.95c-1.73-3.16-1.04-5.45,1.4-6.79,2.43-1.33,4.59-.64,6.34,2.53l3.48,6.34-2.08,1.14-3.58-6.52c-1.04-1.89-2.21-2.33-3.28-1.74-1.12,.62-1.37,1.79-.31,3.71l3.58,6.52-2.08,1.14-3.48-6.32Z" style="fill:#66cacd;"/><path d="M72.9,118.52l2.93-.83-2.8-9.87,2.28-.65,2.8,9.87,2.91-.82,.56,1.97-8.11,2.3-.56-1.97Z" style="fill:#66cacd;"/><path d="M62.33,115.44c-.07-1.12,.8-2.1,1.92-2.17,1.12-.07,2.1,.8,2.17,1.92,.07,1.12-.8,2.1-1.92,2.17-1.15,.07-2.1-.83-2.17-1.92Z" style="fill:#66cacd;"/><path d="M56.86,109.26l-1.8,12.17-6.52-.96,.29-1.96,4.18,.62,.47-3.21-3.89-.57,.28-1.91,3.89,.57,.75-5.08,2.34,.35Z" style="fill:#66cdaa;"/><path d="M41.03,105.24l6.37,2.28-4.14,11.58-2.23-.8,3.47-9.7-4.14-1.48,.67-1.88Z" style="fill:#66cdaa;"/><path d="M32.77,100.5l5.9,3.54-6.34,10.55-5.68-3.41,1.02-1.7,3.65,2.19,1.53-2.55-3.44-2.07,1-1.66,3.44,2.07,1.76-2.94-3.87-2.32,1.02-1.7Z" style="fill:#66cdaa;"/><path d="M24.37,93.04l1.94,1.82-.82,2.49c-.28,.9-.52,1.58-.8,2.32l.03,.03c.69-.36,1.36-.66,2.21-1.02l2.35-1.04,1.89,1.77-6.6,2.39-1.89,6.51-1.93-1.81,.85-2.52c.25-.73,.5-1.35,.76-2.05l-.02-.02c-.74,.36-1.27,.63-1.97,.94l-2.4,1.04-1.9-1.78,6.42-2.25,1.88-6.83Z" style="fill:#66cdaa;"/><path d="M14.22,90.09c-.48-1.34-.15-2.79,1.14-3.67,.79-.54,1.79-.73,2.72-.49,1.09,.27,2.19,1.18,3.42,3,.66,.97,1.08,1.74,1.34,2.26l-10.01,6.78c-.51-.5-1.29-1.45-1.96-2.44-.83-1.23-1.27-2.21-1.25-3.25,0-.89,.41-1.73,1.25-2.29,.93-.63,2.16-.67,3.3,.14l.05-.04Zm.82,2.5c-.75-1.11-1.8-1.37-2.63-.81-1.01,.68-.83,1.66-.23,2.54,.29,.42,.49,.67,.65,.82l2.7-1.83-.48-.71Zm5.09-2.41c-.09-.23-.24-.47-.48-.82-.72-1.06-1.8-1.64-2.96-.86-1.18,.8-.92,2.09-.24,3.1l.49,.73,3.18-2.15Z" style="fill:#66cdaa;"/><path d="M7.71,74.97c4.02-1.48,6.83-.2,7.89,2.67,1.12,3.05-.79,5.72-4.14,6.95-3.45,1.27-6.69,.3-7.81-2.71-1.18-3.2,.98-5.77,4.05-6.9Zm2.85,7.31c2.27-.84,3.8-2.41,3.2-4.05-.61-1.65-2.77-1.83-5.1-.97-2.12,.78-3.79,2.3-3.16,4,.64,1.74,2.95,1.8,5.06,1.01Z" style="fill:#66cdaa;"/><path d="M12.21,61.76l.3,2.64-2.24,1.37c-.8,.51-1.41,.87-2.11,1.26v.05c.77,.17,1.47,.38,2.35,.65l2.47,.73,.29,2.58-6.58-2.45-5.66,3.74-.3-2.62,2.28-1.37c.66-.4,1.26-.71,1.91-1.07v-.03c-.8-.2-1.38-.34-2.11-.56l-2.5-.76-.3-2.59,6.35,2.45,5.86-3.99Z" style="fill:#66cdaa;"/><path d="M.77,51.9c.03-.88,.18-1.99,.45-3.16,.45-2,1.17-3.26,2.22-4.08,1.19-.93,2.82-1.27,4.99-.78,2.58,.58,3.88,1.8,4.5,2.91,.74,1.31,.85,3.09,.38,5.18-.25,1.11-.53,1.98-.74,2.57L.77,51.9Zm10.58-.04c.1-.22,.18-.57,.25-.88,.51-2.2-.52-3.97-3.67-4.67-2.72-.61-4.36,.42-4.83,2.56-.11,.48-.14,.85-.15,1.11l8.41,1.88Z" style="fill:#66cdaa;"/><path d="M18.79,36.51l-2.98,6.2-11.09-5.33,2.87-5.97,1.79,.86-1.84,3.84,2.68,1.29,1.74-3.62,1.74,.84-1.74,3.62,3.09,1.48,1.95-4.07,1.79,.86Z" style="fill:#66cdaa;"/><path d="M16.01,23.27c-.44,.21-1.14,.62-1.75,1.43-.75,.99-.56,1.85-.01,2.26,.7,.53,1.39,.29,2.84-.49,1.89-1.04,3.33-1.05,4.61-.07,1.71,1.3,1.98,3.53,.25,5.81-.74,.97-1.75,1.75-2.38,1.99l-1.3-1.57c.69-.28,1.55-.91,2.15-1.7,.79-1.04,.71-1.97-.01-2.52-.7-.53-1.48-.38-2.77,.34-1.76,.99-3.37,1.22-4.65,.25-1.61-1.22-1.88-3.42-.28-5.53,.71-.93,1.46-1.48,2.04-1.76l1.24,1.57Z" style="fill:#66cdaa;"/><path d="M18.18,17.57l1.72-1.63,8.47,8.92-1.72,1.63-8.47-8.92Z" style="fill:#66cdaa;"/><path d="M38.16,17.2c-.46,.62-1.44,1.66-2.61,2.42-1.57,1.02-3.03,1.39-4.46,1.1-1.45-.3-2.88-1.38-3.94-3.01-2.27-3.49-1.15-6.87,1.81-8.79,1.05-.68,2.04-1.06,2.7-1.14l.65,1.91c-.61,.09-1.3,.31-2.22,.9-1.84,1.19-2.5,3.23-.88,5.73,1.55,2.39,3.61,2.77,5.32,1.66,.48-.31,.8-.62,.92-.81l-1.64-2.52-1.49,.97-1.02-1.57,3.38-2.2,3.48,5.36Z" style="fill:#66cdaa;"/><path d="M49.65,13.44l-2.25,.76-4.13-3.98c-1.03-.99-2.19-2.2-3.11-3.31l-.06,.02c.58,1.41,1.17,3.03,1.87,5.11l1.21,3.58-2.03,.69-3.93-11.66,2.43-.82,4.05,3.9c1.02,.96,2.15,2.16,3.03,3.22h.03c-.64-1.45-1.26-3.08-1.89-4.98l-1.18-3.5,2.03-.69,3.93,11.66Z" style="fill:#66cdaa;"/><path d="M58.17,6.28c.1,1.12-.75,2.12-1.86,2.22-1.12,.1-2.12-.75-2.22-1.86-.1-1.12,.75-2.12,1.86-2.22,1.15-.1,2.12,.78,2.22,1.86Z" style="fill:#66cdaa;"/></g><g><path d="M82.41,43.66l-16.84-8.65c-1.49-.77-3.13-1.15-4.76-1.15s-3.27,.38-4.76,1.15l-16.84,8.65c-3.47,1.78-5.66,5.36-5.66,9.27v15.57c0,3.91,2.19,7.48,5.66,9.27l16.84,8.65c1.49,.77,3.13,1.15,4.76,1.15s3.27-.38,4.76-1.15l16.84-8.65c3.48-1.79,5.66-5.36,5.66-9.27v-15.57c0-3.91-2.19-7.49-5.66-9.27Zm-41.77,2.78l16.84-8.65c1.05-.54,2.19-.81,3.33-.81s2.29,.27,3.33,.81l6.54,3.36-23.22,11.92h0l-9.18-4.71c.63-.79,1.43-1.45,2.35-1.93Zm19.13,37.92c-.79-.11-1.56-.35-2.29-.72l-16.84-8.65c-2.43-1.25-3.96-3.76-3.96-6.49v-15.57c0-.97,.2-1.9,.55-2.76l22.54,11.57v22.62h0Zm-10.59-30.4l23.22-11.93,8.58,4.41c.93,.48,1.72,1.14,2.36,1.93l-22.52,11.57-11.64-5.98Zm35.77,14.54c0,2.73-1.53,5.24-3.96,6.49l-16.84,8.65c-.73,.37-1.5,.61-2.29,.72v-22.62l22.54-11.57c.35,.86,.55,1.8,.55,2.76v15.57h0Z" style="fill:url(#_称未設定グラデーション_11);"/><path d="M43.15,60.47l7.29,3.45c.93,.44,1.69,.04,1.69-.89s-.76-2.05-1.69-2.49l-7.29-3.45c-.93-.44-1.69-.04-1.69,.89s.76,2.05,1.69,2.49Z" style="fill:url(#_称未設定グラデーション_11-2);"/></g></svg>